<svg width="148" height="62" viewBox="0 0 148 62" fill="none" xmlns="http://www.w3.org/2000/svg">
<rect width="147.98" height="62" fill="white"/>
<g clip-path="url(#clip0_2586_13970)">
<path d="M21.2631 38.5041C20.9514 38.5041 20.6728 38.3402 20.5251 38.0778L16.6872 31.435C16.6216 31.3038 16.5722 31.1726 16.5722 31.0242C16.3099 31.0573 16.0803 31.2051 15.9491 31.435L12.1106 38.0771C11.9631 38.3395 11.9631 38.6674 12.1106 38.9305L15.9495 45.5733C16.0969 45.8357 16.3755 45.9997 16.6872 45.9997H24.3636C24.6753 45.9997 24.9539 45.8353 25.1017 45.573L28.9406 38.9302C29.0386 38.7662 29.0552 38.5856 29.0386 38.4054C28.9237 38.471 28.7925 38.5038 28.6613 38.5038H21.2635L21.2631 38.5041Z" fill="#00857E"/>
<path d="M20.5249 23.9222C20.6726 23.6598 20.9512 23.4959 21.2629 23.4959H28.6604C28.7916 23.4959 28.9228 23.5287 29.0377 23.5942C29.0543 23.4137 29.0212 23.2335 28.9394 23.0695L25.1012 16.4264C24.9537 16.164 24.6748 16 24.3631 16H16.7032C16.3915 16 16.1129 16.164 15.9651 16.4264L12.1269 23.0695C11.9792 23.3319 11.9792 23.6598 12.1269 23.9222L15.9651 30.5654C16.0963 30.7953 16.3259 30.943 16.5883 30.9762C16.5883 30.8277 16.6214 30.6965 16.7036 30.5654L20.5252 23.9226L20.5249 23.9222Z" fill="#B8ECFF"/>
<path d="M33.2369 30.5816L29.3987 23.9388C29.3166 23.791 29.1854 23.6764 29.038 23.6108C29.0214 23.7258 28.9886 23.8404 28.9396 23.9388L25.1014 30.5816C24.9536 30.844 24.675 31.0079 24.3633 31.0079C24.675 31.0079 24.9536 31.1719 25.1014 31.4343L28.9396 38.0771C29.0052 38.1755 29.0217 38.2904 29.038 38.4051C29.1857 38.3395 29.3169 38.2245 29.3987 38.0771L33.2369 31.4343C33.3847 31.1719 33.3847 30.844 33.2369 30.5816Z" fill="#364D55"/>
<path d="M25.1013 31.435C24.9535 31.1726 24.6749 31.0083 24.3632 31.0083H16.7033C16.654 31.0083 16.6212 31.0249 16.5884 31.0249C16.5884 31.1726 16.6215 31.3038 16.7037 31.435L20.5419 38.0778C20.6896 38.3402 20.9682 38.5041 21.28 38.5041H28.6609C28.7921 38.5041 28.9232 38.4713 29.0382 38.4058C29.0216 38.2908 28.9888 38.1762 28.9398 38.0778L25.1013 31.435Z" fill="#003033"/>
<path d="M24.3633 31.0083C24.675 31.0083 24.9536 30.8443 25.1014 30.5819L28.9396 23.9388C29.0052 23.8404 29.0217 23.7254 29.038 23.6108C28.923 23.5452 28.7918 23.5124 28.6606 23.5124H21.2632C20.9514 23.5124 20.6728 23.6764 20.5251 23.9388L16.6872 30.5809C16.6216 30.7121 16.5723 30.8433 16.5723 30.9917C16.6051 30.9917 16.6544 31.0079 16.6872 31.0079L24.3633 31.0083Z" fill="#232929"/>
<path d="M77.277 26.2352H76.1943V25.202H81.1808C83.1658 25.202 84.5598 26.5138 84.5598 28.5479C84.5598 30.3686 83.4447 31.4512 82.28 31.697V31.7295C82.28 31.7295 82.5095 31.8606 82.6901 32.2052L84.3796 35.5511C84.5436 35.8956 84.806 35.9284 85.2161 35.9284H85.4457V36.9617H84.9209C83.9695 36.9617 83.6747 36.8467 83.297 36.0758L81.6075 32.7299C81.2957 32.1068 81.0661 32.0246 80.4102 32.0246H78.4252V36.9779H77.2611V26.2345H77.277V26.2352ZM81.0496 30.9751C82.4602 30.9751 83.3294 30.0568 83.3294 28.5807C83.3294 27.1204 82.4602 26.2352 81.0658 26.2352H78.4421V30.9751H81.0496ZM90.3168 28.3511C92.646 28.3511 93.8432 30.1393 93.8432 32.2383C93.8432 32.4351 93.8104 32.8124 93.8104 32.8124H87.3478C87.3806 34.9449 88.8737 36.1583 90.6119 36.1583C92.1537 36.1583 93.138 35.1251 93.138 35.1251L93.6955 35.9778C93.6955 35.9778 92.4655 37.1916 90.5626 37.1916C88.0694 37.1916 86.1506 35.3875 86.1506 32.7796C86.1672 30.0075 88.0535 28.3504 90.3168 28.3504V28.3511ZM92.6788 31.9104C92.6132 30.1718 91.5472 29.3188 90.3002 29.3188C88.9062 29.3188 87.6927 30.2208 87.3969 31.9104H92.6788ZM99.0264 28.3511C101.29 28.3511 101.831 29.7941 101.831 29.7941H101.864C101.864 29.7941 101.864 29.6467 101.864 29.4827C101.864 28.8758 102.127 28.5644 102.816 28.5644H103.98V29.5483H103.291C103.061 29.5483 102.93 29.6633 102.93 29.9091V36.7818C102.93 39.4552 100.945 40.5051 98.879 40.5051C97.9276 40.5051 96.9596 40.2589 96.1397 39.8326L96.5826 38.8811C96.5826 38.8811 97.6159 39.4715 98.8625 39.4715C100.502 39.4715 101.815 38.7002 101.815 36.8305V36.0924C101.815 35.7807 101.831 35.4855 101.831 35.4855H101.799C101.29 36.4038 100.454 36.9458 99.1576 36.9458C96.8943 36.9458 95.4016 35.1575 95.4016 32.6315C95.4016 30.1055 96.7635 28.3511 99.0264 28.3511ZM101.815 32.6156C101.815 30.1552 100.65 29.4009 99.1576 29.4009C97.5178 29.4009 96.566 30.5982 96.566 32.5994C96.566 34.6169 97.6487 35.9125 99.3054 35.9125C100.635 35.9125 101.815 35.0923 101.815 32.6156H101.815Z" fill="#364D55"/>
<path d="M42.7663 27.2681V29.7289H47.2117V32.0743H42.7663V37.1595H39.749V24.8571H47.4413V27.2681H42.767H42.7663ZM54.97 30.2208C54.9206 30.2043 54.6582 30.1552 54.4124 30.1552C53.1168 30.1552 52.2962 30.8933 51.952 31.4015V37.1591H48.9997V28.0069H51.4273V29.2204C51.4766 29.122 52.6079 27.7276 54.4946 27.7276C55.1999 27.7276 55.5772 27.99 55.6262 28.0072L54.9703 30.2212L54.97 30.2208ZM64.5161 33.4683H58.4636C58.4636 34.108 59.0377 35.3381 60.8091 35.3381C62.0391 35.3381 62.9909 34.7805 63.1545 34.6984L64.0238 36.4369C63.9089 36.5515 62.4165 37.4536 60.5792 37.4536C57.1511 37.4536 55.8392 34.9604 55.8392 32.664C55.8392 29.8594 57.6596 27.7601 60.333 27.7601C63.0886 27.7601 64.5482 29.6954 64.5482 32.6484C64.5489 33.0092 64.5161 33.2388 64.5161 33.4683ZM60.3831 29.7451C58.8572 29.7451 58.5458 31.2537 58.513 31.5161H61.9577C61.9742 31.1557 61.8265 29.7451 60.3834 29.7451H60.3831ZM74.6857 33.4683H68.6329C68.6329 34.108 69.207 35.3381 70.9784 35.3381C72.2088 35.3381 73.1602 34.7805 73.3242 34.6984L74.1934 36.4369C74.0785 36.5515 72.5861 37.4536 70.7488 37.4536C67.3207 37.4536 66.0089 34.9604 66.0089 32.664C66.0089 29.8594 67.8292 27.7601 70.5026 27.7601C73.2582 27.7601 74.7178 29.6954 74.7178 32.6484C74.7185 33.0092 74.6857 33.2388 74.6857 33.4683ZM70.552 29.7451C69.0261 29.7451 68.7154 31.2537 68.6823 31.5161H72.1269C72.1432 31.1557 71.9957 29.7451 70.552 29.7451Z" fill="#007FAD"/>
</g>
<path d="M123.98 34.4L117.98 28.4L119.38 27L123.98 31.6L128.58 27L129.98 28.4L123.98 34.4Z" fill="#333333"/>
<defs>
<clipPath id="clip0_2586_13970">
<rect width="91.9802" height="30" fill="white" transform="translate(12 16)"/>
</clipPath>
</defs>
</svg>
